:SAMPLES-PER-SECOND 30
:FRAME-RANGE 1-1700
:FULLY-SPECIFIED
:DEGREES
1594
root  -27.4691 38.0407 65.813 -179.746 -8.40168 -179.762
RightUpLeg  -15.7049 0.800389 12.9751
RightLeg  14.5022 -15.6894 -2.28284
RightFoot  -4.11251 0.768824 -12.5448
RightToes  -1.16417e-010 0 -3.6325e-017
Spine  7.72442 -5.58619 -4.35492
Spine1  0.888013 -8.25919 10.6785
HEad  -6.05576 -60.954 14.5295
LeftShoulder1  1.21244 -0.269795 -25.9596
LeftArm  3.58231 5.90659 -25.9575
LeftForeArm  1.54743 -26.4925 -5.61185
LeftHand  0.232699 -0.510363 -4.55446
RightShoulder  4.00806 3.83192 47.902
RightArm  3.01431 -3.65484 11.7089
RightForeArm  30.1968 -5.94833 16.4258
RightHand  0.141051 1.56595 2.21736
LeftUpLeg  16.2069 35.3742 11.5234
LeftLeg  27.3158 -2.75361 -1.20019
LeftFoot  -8.15415 0.840353 -27.9493
LeftToes  1.03528e-008 1.55373e-010 -2.26046e-010
1595
root  -27.9955 37.8232 64.8738 -179.852 -7.50894 -178.668
RightUpLeg  -16.1222 0.573818 13.8884
RightLeg  18.8979 -14.993 -3.38104
RightFoot  -7.16324 0.399496 -12.2135
RightToes  -1.16417e-010 0 -3.6325e-017
Spine  7.67205 -5.78969 -1.65917
Spine1  1.21876 -8.08001 11.0121
HEad  -5.91781 -61.4244 14.3759
LeftShoulder1  1.21392 -0.275546 -25.9497
LeftArm  3.59459 7.25348 -29.0638
LeftForeArm  4.52312 -27.9213 -5.78721
LeftHand  0.277576 -0.960964 -5.0051
RightShoulder  3.86268 3.64273 47.3825
RightArm  2.24667 -3.91853 12.0003
RightForeArm  28.8213 -6.19883 16.3292
RightHand  0.13092 1.39316 2.11686
LeftUpLeg  8.70325 29.5616 10.6631
LeftLeg  39.8548 -2.66015 -2.00142
LeftFoot  2.02461 3.31851 -27.9176
LeftToes  1.03528e-008 1.55373e-010 -2.26046e-010
1596
root  -28.4434 37.5217 64.0542 179.951 -6.27216 -177.102
RightUpLeg  -16.4087 0.5808 15.4075
RightLeg  22.8693 -14.2986 -4.49359
RightFoot  -10.091 0.0571377 -11.4096
RightToes  -1.16417e-010 0 -3.6325e-017
Spine  8.22039 -5.80329 1.59062
Spine1  1.19477 -7.46907 11.0943
HEad  -5.97704 -61.7722 14.6708
LeftShoulder1  1.23494 -0.28774 -26.4177
LeftArm  4.60786 7.9697 -30.8986
LeftForeArm  6.17588 -28.9318 -5.93813
LeftHand  0.368603 -1.37659 -6.22003
RightShoulder  3.98409 3.82244 47.6745
RightArm  3.19228 -3.84996 12.2002
RightForeArm  26.1758 -6.12265 16.5299
RightHand  0.161291 1.45134 2.60981
LeftUpLeg  1.10411 24.6255 11.0754
LeftLeg  51.4796 -4.85544 -6.07555
LeftFoot  15.2221 5.14121 -21.9479
LeftToes  1.03528e-008 1.55373e-010 -2.26046e-010
1597
root  -28.8979 37.3921 63.1796 179.483 -3.74865 -176.468
RightUpLeg  -15.2145 1.69625 16.053
RightLeg  25.3428 -13.0241 -5.25644
RightFoot  -12.3334 -0.173297 -10.3901
RightToes  -1.16417e-010 0 -3.6325e-017
Spine  9.32089 -5.53185 3.86132
Spine1  0.719897 -6.44838 10.3718
HEad  -5.08676 -61.2283 14.3602
LeftShoulder1  1.21233 -0.170685 -26.8533
LeftArm  6.24261 9.1498 -31.8049
LeftForeArm  6.03159 -28.9629 -5.95351
LeftHand  0.407161 -1.30926 -6.9588
RightShoulder  4.68324 4.90471 48.823
RightArm  4.24575 -2.8346 12.3079
RightForeArm  25.8851 -5.92799 16.6751
RightHand  0.165392 1.63497 2.59212
LeftUpLeg  -4.06337 22.1537 11.9231
LeftLeg  59.9557 -5.03057 -8.80921
LeftFoot  16.2781 4.71509 -19.4357
LeftToes  1.03528e-008 1.55373e-010 -2.26046e-010
1598
root  -29.341 37.5251 62.1924 179.378 -0.527349 -177.302
RightUpLeg  -13.0312 3.16017 15.1507
RightLeg  25.7793 -11.2749 -5.41091
RightFoot  -13.755 -0.291365 -9.40468
RightToes  -1.16417e-010 0 -3.6325e-017
Spine  9.74958 -4.99115 4.17933
Spine1  0.319071 -5.49756 9.44598
HEad  -3.87295 -59.6711 13.3195
LeftShoulder1  1.14733 0.050009 -27.0841
LeftArm  8.14783 10.8835 -32.5328
LeftForeArm  4.10586 -27.9148 -5.80812
LeftHand  0.407479 -1.28135 -6.99644
RightShoulder  5.62287 6.41996 49.6545
RightArm  4.3419 -1.30147 13.1447
RightForeArm  26.8883 -5.97827 16.5879
RightHand  0.183488 1.92885 2.74886
LeftUpLeg  -8.7023 20.776 11.4087
LeftLeg  64.569 -3.30762 -6.9467
LeftFoot  12.7379 3.55679 -16.9414
LeftToes  1.03528e-008 1.55373e-010 -2.26046e-010
